<?xml version="1.0" encoding="UTF-8" standalone="no"?>
<!DOCTYPE svg PUBLIC "-//W3C//DTD SVG 1.1//EN" "http://www.w3.org/Graphics/SVG/1.1/DTD/svg11.dtd">
<!-- Generated by graphviz version 9.0.0 (20230911.1827)
 -->
<!-- Pages: 1 -->
<svg width="537pt" height="404pt"
    viewBox="0.00 0.00 536.86 404.00" xmlns="http://www.w3.org/2000/svg"
    xmlns:xlink="http://www.w3.org/1999/xlink">
    <g id="graph0" class="graph" transform="scale(1 1) rotate(0) translate(4 400)">
        <polygon fill="white" stroke="none" points="-4,4 -4,-400 532.86,-400 532.86,4 -4,4" />
        <!-- [root] aws_eip.lb (expand) -->
        <g id="node1" class="node">
            <title>[root] aws_eip.lb (expand)</title>
            <polygon fill="none" stroke="black"
                points="301.68,-180 227.18,-180 227.18,-144 301.68,-144 301.68,-180" />
            <text text-anchor="middle" x="264.43" y="-156.95" font-family="Times,serif"
                font-size="14.00">aws_eip.lb</text>
        </g>
        <!-- [root] aws_instance.myec2 (expand) -->
        <g id="node2" class="node">
            <title>[root] aws_instance.myec2 (expand)</title>
            <polygon fill="none" stroke="black"
                points="328.68,-108 200.18,-108 200.18,-72 328.68,-72 328.68,-108" />
            <text text-anchor="middle" x="264.43" y="-84.95" font-family="Times,serif"
                font-size="14.00">aws_instance.myec2</text>
        </g>
        <!-- [root] aws_eip.lb (expand)&#45;&gt;[root] aws_instance.myec2 (expand) -->
        <g id="edge1" class="edge">
            <title>[root] aws_eip.lb (expand)&#45;&gt;[root] aws_instance.myec2 (expand)</title>
            <path fill="none" stroke="black"
                d="M264.43,-143.7C264.43,-136.41 264.43,-127.73 264.43,-119.54" />
            <polygon fill="black" stroke="black"
                points="267.93,-119.62 264.43,-109.62 260.93,-119.62 267.93,-119.62" />
        </g>
        <!-- [root] provider[&quot;registry.terraform.io/hashicorp/aws&quot;] -->
        <g id="node4" class="node">
            <title>[root] provider[&quot;registry.terraform.io/hashicorp/aws&quot;]</title>
            <polygon fill="none" stroke="black"
                points="264.43,-36 0,-18 264.43,0 528.86,-18 264.43,-36" />
            <text text-anchor="middle" x="264.43" y="-12.95" font-family="Times,serif"
                font-size="14.00">provider[&quot;registry.terraform.io/hashicorp/aws&quot;]</text>
        </g>
        <!-- [root] aws_instance.myec2 (expand)&#45;&gt;[root]
        provider[&quot;registry.terraform.io/hashicorp/aws&quot;] -->
        <g id="edge2" class="edge">
            <title>[root] aws_instance.myec2 (expand)&#45;&gt;[root]
                provider[&quot;registry.terraform.io/hashicorp/aws&quot;]</title>
            <path fill="none" stroke="black"
                d="M264.43,-71.7C264.43,-64.41 264.43,-55.73 264.43,-47.54" />
            <polygon fill="black" stroke="black"
                points="267.93,-47.62 264.43,-37.62 260.93,-47.62 267.93,-47.62" />
        </g>
        <!-- [root] aws_security_group.allow_tls (expand) -->
        <g id="node3" class="node">
            <title>[root] aws_security_group.allow_tls (expand)</title>
            <polygon fill="none" stroke="black"
                points="353.43,-252 175.43,-252 175.43,-216 353.43,-216 353.43,-252" />
            <text text-anchor="middle" x="264.43" y="-228.95" font-family="Times,serif"
                font-size="14.00">aws_security_group.allow_tls</text>
        </g>
        <!-- [root] aws_security_group.allow_tls (expand)&#45;&gt;[root] aws_eip.lb (expand) -->
        <g id="edge3" class="edge">
            <title>[root] aws_security_group.allow_tls (expand)&#45;&gt;[root] aws_eip.lb (expand)</title>
            <path fill="none" stroke="black"
                d="M264.43,-215.7C264.43,-208.41 264.43,-199.73 264.43,-191.54" />
            <polygon fill="black" stroke="black"
                points="267.93,-191.62 264.43,-181.62 260.93,-191.62 267.93,-191.62" />
        </g>
        <!-- [root] provider[&quot;registry.terraform.io/hashicorp/aws&quot;] (close) -->
        <g id="node5" class="node">
            <title>[root] provider[&quot;registry.terraform.io/hashicorp/aws&quot;] (close)</title>
            <ellipse fill="none" stroke="black" cx="264.43" cy="-306" rx="238.16" ry="18" />
            <text text-anchor="middle" x="264.43" y="-300.95" font-family="Times,serif"
                font-size="14.00">[root] provider[&quot;registry.terraform.io/hashicorp/aws&quot;]
                (close)</text>
        </g>
        <!-- [root] provider[&quot;registry.terraform.io/hashicorp/aws&quot;] (close)&#45;&gt;[root]
        aws_security_group.allow_tls (expand) -->
        <g id="edge4" class="edge">
            <title>[root] provider[&quot;registry.terraform.io/hashicorp/aws&quot;]
                (close)&#45;&gt;[root] aws_security_group.allow_tls (expand)</title>
            <path fill="none" stroke="black"
                d="M264.43,-287.7C264.43,-280.41 264.43,-271.73 264.43,-263.54" />
            <polygon fill="black" stroke="black"
                points="267.93,-263.62 264.43,-253.62 260.93,-263.62 267.93,-263.62" />
        </g>
        <!-- [root] root -->
        <g id="node6" class="node">
            <title>[root] root</title>
            <ellipse fill="none" stroke="black" cx="264.43" cy="-378" rx="49.3" ry="18" />
            <text text-anchor="middle" x="264.43" y="-372.95" font-family="Times,serif"
                font-size="14.00">[root] root</text>
        </g>
        <!-- [root] root&#45;&gt;[root] provider[&quot;registry.terraform.io/hashicorp/aws&quot;]
        (close) -->
        <g id="edge5" class="edge">
            <title>[root] root&#45;&gt;[root]
                provider[&quot;registry.terraform.io/hashicorp/aws&quot;] (close)</title>
            <path fill="none" stroke="black"
                d="M264.43,-359.7C264.43,-352.41 264.43,-343.73 264.43,-335.54" />
            <polygon fill="black" stroke="black"
                points="267.93,-335.62 264.43,-325.62 260.93,-335.62 267.93,-335.62" />
        </g>
    </g>
</svg>